# xmcd
#
# Track frame offsets: 
#        150
#        39725
#        66367
#        83928
#        101179
#        125597
#        153622
#        171249
#        204528
#        245750
#        264631
#        281128
#        314247
#        330470
#
# Disc length: 4613 seconds
#
# Revision: 0
# Processed by: cddbd v1.5.2PL0 Copyright (c) Steve Scherf et al.
# Submitted via: ExactAudioCopy v1.0b3
#
DISCID=e212030e
DTITLE=Various Artist - United Trance Vol. 2 - CD 2
DYEAR=1900
DGENRE=
TTITLE0=DJ Shah Feat. No Iron - Tides Of Time (Trance Mix)
TTITLE1=DJ Wag - The Darkness (Yakooza Rmx Edit)
TTITLE2=Crizz Lee - Why Not?
TTITLE3=Terence - Maniac 2001 (Radio Edit)
TTITLE4=Cosmo and Tom - Living On Video (Bush Remix)
TTITLE5=Coolmind - Ravers and Deejays (Fabietto DJ Rmx)
TTITLE6=DJ Session One - No Gravity (Radio and Video Edit)
TTITLE7=Scott Bells - Deep In My Heart (Club Mix)
TTITLE8=Resource - Eye Jenner (Original)
TTITLE9=Sturgeon - Blow Your Mind
TTITLE10=Syntone - C'est Syntone (Single Edit)
TTITLE11=Nordlicht - Cry (Club Vocal Mix)
TTITLE12=Killer K - Ready For Take Off (Radio Version 1)
TTITLE13=Nexus - Return From Flatliner (Radio Edit)
EXTD=
EXTT0=
EXTT1=
EXTT2=
EXTT3=
EXTT4=
EXTT5=
EXTT6=
EXTT7=
EXTT8=
EXTT9=
EXTT10=
EXTT11=
EXTT12=
EXTT13=
PLAYORDER=
